# xmcd CD database file
#
# Track frame offsets:
#	150
#	31560
#	60139
#	98127
#	122505
#	130727
#	175009
#	205817
#	250572
#
# Disc length: 3625 seconds
#
# Revision: 0
# Processed by: cddbd v1.5.1PL2 Copyright (c) Steve Scherf et al.
# Submitted via: CDex 1.51
#
DISCID=5f0e2709
DTITLE=Hernandez, Gabriel - Jazz a lo Cubano
DYEAR=1994
DGENRE=Jazz
TTITLE0=Guajira from anywhere
TTITLE1=Propuesta
TTITLE2=Chrónica para un final
TTITLE3=Son a Emiliano
TTITLE4=El manisero
TTITLE5=Vals de fuego
TTITLE6=Prólogo
TTITLE7=Secret voice
TTITLE8=To remember Black Bird
EXTD=YEAR: 1994
EXTT0=
EXTT1=
EXTT2=
EXTT3=
EXTT4=
EXTT5=
EXTT6=
EXTT7=
EXTT8=
PLAYORDER=
